<?xml version="1.0" encoding="utf-8"?>
<!-- Generator: Adobe Illustrator 26.0.2, SVG Export Plug-In . SVG Version: 6.00 Build 0)  -->
<svg version="1.1" id="Calque_1" xmlns="http://www.w3.org/2000/svg" xmlns:xlink="http://www.w3.org/1999/xlink" x="0px" y="0px"
	 viewBox="0 0 848.2 143.3" style="enable-background:new 0 0 848.2 143.3;" xml:space="preserve">
<style type="text/css">
	.st0{fill:#FFFFFF;}
	.st1{fill:url(#SVGID_1_);}
	.st2{fill:url(#SVGID_00000012453085002196022940000003413172830093810313_);}
	.st3{fill:url(#SVGID_00000072240939508664828990000003431831589976886171_);}
	.st4{fill:url(#SVGID_00000008871183274788201740000007994461537292157364_);}
</style>
<g>
	<g>
		<g>
			<path class="st0" d="M183.6,122.1c-9.4,0-17.4-2.1-23.8-6.4c-5.4-3.5-9.5-8.1-12.2-13.8c-1-2.1-0.2-4.4,1.7-5.6l10.6-6.2
				c3.9,10.9,12,16.4,24.2,16.4c6,0,10.6-1.2,13.6-3.5c3-2.3,4.5-5.4,4.5-9.3c0-4-1.6-7-4.8-9.1c-3.3-2.1-9.1-4.4-17.2-6.9
				c-4.5-1.7-8.3-3-11.2-4.1c-2.9-1.1-6-2.7-9.1-4.8c-3.2-2.1-5.6-4.8-7.1-8.1c-1.6-3.3-2.3-7-2.3-11.4c0-8.7,3-15.4,9.1-20.5
				s13.3-7.4,21.9-7.4c7.7,0,14.5,1.9,20.5,5.7c4.6,3,8.4,7,11.4,11.8c1.3,2.1,0.6,4.8-1.5,6l-9.9,5.7c-4.1-9.1-10.9-13.6-20.5-13.6
				c-4.6,0-8.3,1.1-11.1,3.3c-2.8,2.1-4.2,5.2-4.2,8.9c0,3.5,1.4,6.4,4.3,8.4c2.8,2.1,7.9,4.2,15.4,6.5c3.7,1.4,6.2,2.3,7.9,3
				c1.7,0.6,4.1,1.5,7.3,2.7c3.1,1.2,5.5,2.5,7.1,3.8c1.5,1.3,3.3,2.9,5,5c1.8,1.9,3,4.2,3.8,6.8c0.8,2.6,1.1,5.4,1.1,8.7
				c0,8.9-3.1,15.7-9.5,20.9C202.3,119.6,194,122.1,183.6,122.1z"/>
			<path class="st0" d="M324.4,23v93c0,2.3-1.9,4.3-4.3,4.3h-11.6V50.9L278.7,100h-1.9l-29.6-49.1v65.2c0,2.3-1.9,4.3-4.3,4.3h-11.6
				V27.4c0-2.3,1.9-4.3,4.3-4.3h12.9l29.4,48.6l29.4-48.6L324.4,23L324.4,23z"/>
			<path class="st0" d="M407.2,120.4l-6.9-19.6h-41.4l-6.8,19.6h-17.4l33.8-93c1-2.6,3.3-4.3,6-4.3h14.7l34.2,94.5
				c0.6,1.4-0.6,2.9-2.1,2.9H407.2L407.2,120.4z M364.3,85.8h27.8c1.5,0,2.5-1.5,2.1-2.9l-14.3-41.1L364.3,85.8z"/>
			<path class="st0" d="M490.4,120.4l-20.6-35.5h-19V116c0,2.3-1.9,4.3-4.3,4.3h-11.6v-93c0-2.3,1.9-4.3,4.3-4.3h34.6
				c8.7,0,16.1,3,22.2,9.1c6,6,9.1,13.5,9.1,22.2c0,6.2-1.8,11.8-5.4,17c-3.5,5.2-8.2,8.9-14,11.2l20.1,34.6
				c0.9,1.4-0.2,3.3-1.8,3.3H490.4z M450.8,38.1v32.6h23c4.3,0,7.9-1.6,10.9-4.8c3-3.1,4.4-7,4.4-11.6s-1.5-8.4-4.4-11.6
				c-3-3.1-6.6-4.8-10.9-4.8L450.8,38.1L450.8,38.1z"/>
			<path class="st0" d="M581.2,23v11c0,2.3-1.9,4.3-4.3,4.3h-23V116c0,2.3-1.9,4.3-4.3,4.3h-11.6v-82h-27.5v-11
				c0-2.3,1.9-4.3,4.3-4.3H581.2z"/>
			<path class="st0" d="M631.2,23c13.4,0,24.5,4.6,33.3,14c8.9,9.4,13.3,20.9,13.3,34.6c0,13.6-4.4,25.1-13.3,34.6
				c-8.9,9.4-19.9,14.1-33.3,14.1H593v-93c0-2.3,1.9-4.3,4.3-4.3H631.2z M631.2,105c9.1,0,16.7-3.1,22.4-9.5
				c5.8-6.2,8.7-14.3,8.7-23.9s-2.9-17.7-8.7-23.9s-13.3-9.4-22.4-9.4h-17.9c-2.3,0-4.3,1.9-4.3,4.3v62.4L631.2,105L631.2,105z"/>
			<path class="st0" d="M708.4,105h43.1v11c0,2.3-1.9,4.3-4.3,4.3h-54.7v-93c0-2.3,1.9-4.3,4.3-4.3h54.1v15.3h-42.3v25.3h38.9v15.2
				h-38.9V105H708.4z"/>
			<path class="st0" d="M790.9,120.4L757.1,23h14.5c1.8,0,3.5,1.2,4.1,2.9l24.9,75l25-75c0.6-1.7,2.3-2.9,4.1-2.9H844l-32.8,94.5
				c-0.6,1.7-2.3,2.9-4.1,2.9H790.9L790.9,120.4z"/>
		</g>
	</g>
	<g>
		
			<linearGradient id="SVGID_1_" gradientUnits="userSpaceOnUse" x1="1451.187" y1="-9533.6221" x2="1525.9207" y2="-9608.3564" gradientTransform="matrix(-1 0 0 -1 1567.4939 -9495.8047)">
			<stop  offset="0" style="stop-color:#42ABE1"/>
			<stop  offset="1" style="stop-color:#315FA9"/>
		</linearGradient>
		<path class="st1" d="M95.5,102.7l16.6-53c4.3-13.8-6-27.7-20.5-27.7l-8.2,0.1L51.7,122.6h16.8C80.9,122.6,91.8,114.5,95.5,102.7z"
			/>
		
			<linearGradient id="SVGID_00000023968218313375415090000013289995589646274184_" gradientUnits="userSpaceOnUse" x1="1462.5824" y1="-9522.0645" x2="1499.8477" y2="-9559.3301" gradientTransform="matrix(-1 0 0 -1 1567.4939 -9495.8047)">
			<stop  offset="0" style="stop-color:#3974B9"/>
			<stop  offset="1" style="stop-color:#68C5DF"/>
		</linearGradient>
		<path style="fill:url(#SVGID_00000023968218313375415090000013289995589646274184_);" d="M109.5,57.7l2.6-8.2
			c4.3-13.7-6-27.7-20.3-27.7c-10,0-18.7,0-18.7,0L61.9,57.8L109.5,57.7z"/>
		
			<linearGradient id="SVGID_00000118396590740462171650000013212704310706935476_" gradientUnits="userSpaceOnUse" x1="1486.3558" y1="-9525.7334" x2="1571.2776" y2="-9610.6553" gradientTransform="matrix(-1 0 0 -1 1567.4939 -9495.8047)">
			<stop  offset="0" style="stop-color:#42ABE1"/>
			<stop  offset="1" style="stop-color:#315FA9"/>
		</linearGradient>
		<polygon style="fill:url(#SVGID_00000118396590740462171650000013212704310706935476_);" points="41.7,122.6 73.1,21.9 35.8,22.1 
			4,122.6 		"/>
		
			<linearGradient id="SVGID_00000177444381601496641070000000993252750871760528_" gradientUnits="userSpaceOnUse" x1="1510.3962" y1="-9577.0762" x2="1557.6265" y2="-9624.3066" gradientTransform="matrix(-1 0 0 -1 1567.4939 -9495.8047)">
			<stop  offset="0" style="stop-color:#3974B9"/>
			<stop  offset="1" style="stop-color:#68C5DF"/>
		</linearGradient>
		<polygon style="fill:url(#SVGID_00000177444381601496641070000000993252750871760528_);" points="51.7,122.6 62.9,87 15.2,87.2 
			4,122.6 		"/>
	</g>
</g>
</svg>
